<?xml version="1.0" encoding="utf-8"?>
<!-- Generator: Adobe Illustrator 18.0.0, SVG Export Plug-In . SVG Version: 6.00 Build 0)  -->
<!DOCTYPE svg PUBLIC "-//W3C//DTD SVG 1.1//EN" "http://www.w3.org/Graphics/SVG/1.1/DTD/svg11.dtd">
<svg version="1.1" id="Layer_1" xmlns="http://www.w3.org/2000/svg" xmlns:xlink="http://www.w3.org/1999/xlink" x="0px" y="0px"
	 viewBox="172 -118.012 120 118.012" enable-background="new 172 -118.012 120 118.012" xml:space="preserve">
<path d="M232-80.468c-3.201,0-5.711,0.317-9.063,1.937c-8.201,3.995-11.873,12.144-11.873,18.447c0,0.826,1.403,7.977,2.249,12.287
	l0.061,0.311c0.126,0.641,0.375,1.958,0.592,3.108l0.274,1.573l3.153-0.549c0.377,1.952,0.77,3.712,1.011,4.195
	c0.749,1.498,2.479,1.613,2.991,1.613c1.679,0,3.492-1.376,3.492-3.584c-0.021-0.304-1.106-6.603-1.766-9.739
	c0-0.181-0.159-0.506-0.371-0.735c-0.8-1.304-2.2-1.651-2.901-1.651c-2.268,0-3.492,1.799-3.492,3.491
	c0,0.394,0.309,2.414,0.699,4.596l-1.43,0.249c-0.441-2.318-0.968-5.095-1.286-6.738c-1.27-6.555-1.589-8.23-1.589-8.427
	c0-1.788,0.44-4.281,1.02-5.791c3.326-9.517,11.599-12.909,18.231-12.909c11.89,0,19.25,9.706,19.25,18.7
	c0,0.188-0.755,4.36-2.773,14.761l-1.552-0.27l0.035-0.196c0.255-1.403,0.68-3.752,0.683-3.974c0-1.925-1.566-3.491-3.491-3.491
	c-3.171,0-3.555,2.816-3.961,5.798c-0.142,1.045-0.277,2.032-0.532,2.752c-0.236,1.297-0.541,3.38-0.545,3.553
	c0,1.773,1.307,3.606,3.493,3.606c0.985,0,2.336-0.61,2.892-1.637c0.673-1.178,0.875-2.767,1.039-4.046
	c0.024-0.191,0.049-0.367,0.074-0.547l1.513,0.263c0,0,0,0.001,0,0.001l1.716,0.329c1.54-8.095,3.07-16.642,3.095-16.903
	C252.936-71.323,243.544-80.468,232-80.468z M219.849-51.571h0.002c0.525,0.003,1.398,0.451,1.572,1.155
	c0.624,2.799,1.779,8.955,1.779,9.265c0,1.19-1.052,1.922-1.807,1.922c-0.649,0-1.496-0.573-1.686-1.159
	c-0.633-2.95-1.666-8.94-1.666-9.375C218.042-50.661,218.663-51.571,219.849-51.571z M244.17-40.338
	c-0.181,0.55-1.061,1.11-1.562,1.11c-1.174,0-1.808-0.99-1.808-1.922c0-0.127,0.042-0.345,0.164-0.956
	c0.137-0.69,0.326-1.634,0.398-2.335c0.094-0.477,0.189-1.032,0.291-1.626l0.061-0.329c0.106-0.29,0.161-0.846,0.214-1.384
	c0.149-1.509,0.373-3.789,2.227-3.789c1.081,0,1.807,0.934,1.807,1.807C245.96-49.327,244.791-43.227,244.17-40.338z"/>
</svg>
