<?xml version="1.0" encoding="utf-8"?>
<!-- Generator: Adobe Illustrator 18.0.0, SVG Export Plug-In . SVG Version: 6.00 Build 0)  -->
<!DOCTYPE svg PUBLIC "-//W3C//DTD SVG 1.1//EN" "http://www.w3.org/Graphics/SVG/1.1/DTD/svg11.dtd">
<svg version="1.1" id="Layer_1" xmlns="http://www.w3.org/2000/svg" xmlns:xlink="http://www.w3.org/1999/xlink" x="0px" y="0px"
	 viewBox="756 -118.012 120 118.012" enable-background="new 756 -118.012 120 118.012" xml:space="preserve">
<g>
	<path d="M827.651-78.301c7.096,0,12.868,5.233,12.868,11.666l0,0.063l0,0.053l0,0.014c0,15.23-20.518,26.297-24.52,28.31
		c-4.004-2.011-24.519-13.061-24.519-28.31l0-0.057v-0.006l0-0.066c0-6.433,5.773-11.666,12.868-11.666
		c4.096,0,7.986,1.795,10.405,4.803l1.247,1.55l1.247-1.55C819.666-76.506,823.555-78.301,827.651-78.301 M827.651-79.901
		c-4.779,0-9.017,2.125-11.651,5.4c-2.635-3.275-6.872-5.4-11.651-5.4c-7.991,0-14.468,5.939-14.468,13.266c0,0.026,0,0.052,0,0.078
		c0,0.017,0,0.034,0,0.051c0,18.031,26.12,30.091,26.12,30.091s26.12-12.06,26.12-30.091c0-0.018,0-0.036,0-0.055
		c0-0.025,0-0.049,0-0.074C842.12-73.962,835.642-79.901,827.651-79.901L827.651-79.901z"/>
	<g>
		<path d="M811.452-52.131c0,0,1.809,1.908,4.56,1.908c1.907,0,3.469-1.141,3.469-3.023c0-4.237-8.772-3.37-8.772-8.673
			c0-2.28,1.81-4.263,4.56-4.609v-2.354h1.388v2.305c2.677,0.148,4.139,1.66,4.139,1.66l-0.843,1.438c0,0-1.561-1.486-3.815-1.486
			c-2.256,0-3.668,1.462-3.668,2.998c0,3.989,8.747,3.048,8.747,8.673c0,2.404-1.71,4.387-4.56,4.659v2.305h-1.388v-2.305
			c-3.146-0.248-4.856-2.181-4.856-2.181L811.452-52.131z"/>
	</g>
</g>
</svg>
