<?xml version="1.0" encoding="utf-8"?>
<!-- Generator: Adobe Illustrator 18.0.0, SVG Export Plug-In . SVG Version: 6.00 Build 0)  -->
<!DOCTYPE svg PUBLIC "-//W3C//DTD SVG 1.1//EN" "http://www.w3.org/Graphics/SVG/1.1/DTD/svg11.dtd">
<svg version="1.1" id="Layer_1" xmlns="http://www.w3.org/2000/svg" xmlns:xlink="http://www.w3.org/1999/xlink" x="0px" y="0px"
	 viewBox="464 -118.012 120 118.012" enable-background="new 464 -118.012 120 118.012" xml:space="preserve">
<g>
	<path d="M549.38-36.557l-12.409-12.409c2.994-3.265,4.838-7.6,4.838-12.368c0-10.112-8.227-18.338-18.339-18.338
		c-10.111,0-18.338,8.227-18.338,18.338s8.227,18.338,18.338,18.338c4.769,0,9.104-1.845,12.369-4.839l12.409,12.409L549.38-36.557z
		 M506.733-61.333c0-9.229,7.509-16.739,16.738-16.739s16.739,7.509,16.739,16.739s-7.51,16.738-16.739,16.738
		S506.733-52.104,506.733-61.333z"/>
	<path d="M518.42-71.036c0,4.025,0,8.473,0,12.498c-0.945-0.181-2.104,0.058-3.138,0.646c-1.837,1.048-2.753,2.878-2.046,4.088
		c0.707,1.21,2.769,1.341,4.607,0.294c1.383-0.79,2.291-2.061,2.28-3.191h0.004v-10.542h10.244v8.705
		c-0.945-0.181-2.104,0.058-3.138,0.646c-1.837,1.048-2.753,2.878-2.046,4.088c0.707,1.21,2.769,1.341,4.607,0.294
		c1.416-0.809,2.331-2.12,2.278-3.266h0.006v-14.26L518.42-71.036z"/>
</g>
</svg>
