<?xml version="1.0" encoding="utf-8"?>
<!-- Generator: Adobe Illustrator 18.0.0, SVG Export Plug-In . SVG Version: 6.00 Build 0)  -->
<!DOCTYPE svg PUBLIC "-//W3C//DTD SVG 1.1//EN" "http://www.w3.org/Graphics/SVG/1.1/DTD/svg11.dtd">
<svg version="1.1" id="Layer_1" xmlns="http://www.w3.org/2000/svg" xmlns:xlink="http://www.w3.org/1999/xlink" x="0px" y="0px"
	 viewBox="610 -118.012 120 118.012" enable-background="new 610 -118.012 120 118.012" xml:space="preserve">
<g>
	<polygon points="677.04,-64.12 667.347,-54.435 662.703,-59.068 661.628,-57.996 667.437,-52.197 678.202,-62.954 	"/>
	<g>
		<g>
			<path d="M670-78.179l4.543,6.054c0.129,0.172,0.291,0.316,0.477,0.424c0.167,0.097,0.366,0.168,0.556,0.2
				c0.087,0.014,0.175,0.022,0.263,0.022c0.076,0,0.151-0.005,0.226-0.016l7.491-1.07l-1.069,7.491
				c-0.023,0.163-0.021,0.328,0.006,0.49c0.014,0.083,0.041,0.189,0.067,0.269c0.103,0.308,0.297,0.576,0.557,0.771l6.054,4.539
				l-6.054,4.54c-0.234,0.175-0.415,0.411-0.524,0.682c-0.037,0.091-0.071,0.205-0.091,0.302c-0.036,0.178-0.041,0.361-0.015,0.541
				l1.069,7.488l-7.491-1.069c-0.075-0.011-0.151-0.016-0.226-0.016c-0.261,0-0.518,0.064-0.747,0.185
				c-0.215,0.111-0.401,0.268-0.546,0.462l-4.545,6.057l-4.54-6.056c-0.163-0.217-0.377-0.389-0.624-0.5
				c-0.015-0.007-0.031-0.013-0.047-0.02c-0.198-0.084-0.411-0.128-0.627-0.128c-0.075,0-0.151,0.005-0.226,0.016l-7.492,1.069
				l1.07-7.494c0.011-0.075,0.016-0.151,0.016-0.226c0-0.128-0.016-0.257-0.046-0.382c-0.086-0.359-0.295-0.681-0.596-0.907
				l-6.059-4.544l6.058-4.543c0.174-0.13,0.319-0.295,0.428-0.483c0.055-0.096,0.101-0.201,0.136-0.308
				c0.078-0.234,0.1-0.484,0.065-0.729l-1.071-7.497l7.494,1.071c0.075,0.011,0.15,0.016,0.225,0.016
				c0.175,0,0.349-0.029,0.514-0.085c0.311-0.101,0.586-0.296,0.785-0.562L670-78.179 M669.999-80.845l-5.817,7.761
				c-0.008,0.001-0.013,0.004-0.018,0.006l-9.606-1.373l1.372,9.609c-0.002,0.006-0.002,0.01-0.005,0.014l-7.765,5.823l7.766,5.824
				c0,0.004,0.002,0.007,0.002,0.01l-1.372,9.605l9.604-1.37c0.005,0.004,0.012,0.005,0.018,0.007l5.819,7.763l5.826-7.763
				c0.005-0.002,0.01-0.004,0.014-0.007l9.602,1.37l-1.37-9.599c0.001-0.006,0.004-0.013,0.006-0.019l7.762-5.82l-7.761-5.819
				c-0.002-0.007-0.005-0.016-0.006-0.024l1.37-9.603l-9.602,1.372c-0.007-0.001-0.012-0.004-0.016-0.006L669.999-80.845
				L669.999-80.845z"/>
		</g>
	</g>
</g>
</svg>
