<?xml version="1.0" encoding="utf-8"?>
<!-- Generator: Adobe Illustrator 18.0.0, SVG Export Plug-In . SVG Version: 6.00 Build 0)  -->
<!DOCTYPE svg PUBLIC "-//W3C//DTD SVG 1.1//EN" "http://www.w3.org/Graphics/SVG/1.1/DTD/svg11.dtd">
<svg version="1.1" id="Layer_1" xmlns="http://www.w3.org/2000/svg" xmlns:xlink="http://www.w3.org/1999/xlink" x="0px" y="0px"
	 viewBox="0 0 131.365 15.656" enable-background="new 0 0 131.365 15.656" xml:space="preserve">
<g>
	<polygon opacity="0.5" fill="#FFFFFF" points="131.365,7.828 123.537,15.656 121.998,14.118 128.288,7.828 121.998,1.538 
		123.537,0 	"/>
	<path opacity="0.5" fill="#FFFFFF" d="M118,8.191h-6V7.465h6V8.191z M105,8.191h-7V7.465h7V8.191z M91,8.191h-7V7.465h7V8.191z
		 M77,8.191h-7V7.465h7V8.191z M63,8.191h-7V7.465h7V8.191z M49,8.191h-7V7.465h7V8.191z M35,8.191h-7V7.465h7V8.191z M21,8.191h-7
		V7.465h7V8.191z M7,8.191H0V7.465h7V8.191z"/>
</g>
</svg>
