<?xml version="1.0" encoding="utf-8"?>
<!-- Generator: Adobe Illustrator 18.0.0, SVG Export Plug-In . SVG Version: 6.00 Build 0)  -->
<!DOCTYPE svg PUBLIC "-//W3C//DTD SVG 1.1//EN" "http://www.w3.org/Graphics/SVG/1.1/DTD/svg11.dtd">
<svg version="1.1" id="Layer_1" xmlns="http://www.w3.org/2000/svg" xmlns:xlink="http://www.w3.org/1999/xlink" x="0px" y="0px"
	 viewBox="0 0 60.761 60.61" enable-background="new 0 0 60.761 60.61" xml:space="preserve">
<g>
	<circle fill="#E72499" cx="30.381" cy="30.381" r="2.164"/>
	<path fill="#E72499" d="M30.381,41.95c-6.379,0-11.57-5.19-11.57-11.57s5.191-11.569,11.57-11.569s11.569,5.19,11.569,11.569
		S36.76,41.95,30.381,41.95z M30.381,21.258c-5.031,0-9.123,4.092-9.123,9.123c0,5.03,4.092,9.123,9.123,9.123
		c5.03,0,9.122-4.093,9.122-9.123C39.503,25.35,35.411,21.258,30.381,21.258z"/>
	<path fill="#E72499" d="M30.381,60.762C13.629,60.762,0,47.133,0,30.381S13.629,0,30.381,0s30.381,13.629,30.381,30.381
		S47.132,60.762,30.381,60.762z M30.381,2.446c-15.403,0-27.935,12.531-27.935,27.934c0,15.404,12.532,27.935,27.935,27.935
		s27.934-12.531,27.934-27.935C58.314,14.978,45.784,2.446,30.381,2.446z"/>
	<path fill="#E72499" d="M32.198,51.586c-0.737,0-1.336-0.599-1.336-1.335c0-0.736,0.599-1.335,1.336-1.335
		c9.391,0,17.031-7.64,17.031-17.031c0-0.736,0.599-1.335,1.336-1.335c0.736,0,1.335,0.599,1.335,1.335
		C51.9,42.748,43.062,51.586,32.198,51.586z"/>
</g>
</svg>
