<?xml version="1.0" encoding="utf-8"?>
<!-- Generator: Adobe Illustrator 18.0.0, SVG Export Plug-In . SVG Version: 6.00 Build 0)  -->
<!DOCTYPE svg PUBLIC "-//W3C//DTD SVG 1.1//EN" "http://www.w3.org/Graphics/SVG/1.1/DTD/svg11.dtd">
<svg version="1.1" id="Layer_1" xmlns="http://www.w3.org/2000/svg" xmlns:xlink="http://www.w3.org/1999/xlink" x="0px" y="0px"
	 viewBox="0 0 57.154 60.61" enable-background="new 0 0 57.154 60.61" xml:space="preserve">
<path fill="#FFFFFF" d="M46.258,38.823c-3.355,0-6.358,1.526-8.358,3.918l-17.326-7.667c0.773-1.495,1.217-3.187,1.217-4.983
	c0-1.655-0.382-3.219-1.045-4.626L37.9,17.874c2,2.392,5.004,3.918,8.358,3.918c6.008,0,10.895-4.888,10.895-10.896
	C57.154,4.888,52.266,0,46.258,0S35.362,4.888,35.362,10.896c0,1.936,0.513,3.753,1.403,5.33l-17.02,7.532
	c-1.979-2.757-5.204-4.563-8.849-4.563C4.888,19.195,0,24.083,0,30.091c0,6.008,4.888,10.896,10.895,10.896
	c3.5,0,6.611-1.666,8.606-4.238l17.263,7.639c-0.889,1.578-1.403,3.394-1.403,5.33c0,6.009,4.888,10.896,10.896,10.896
	s10.895-4.888,10.895-10.896C57.154,43.711,52.266,38.823,46.258,38.823z M46.258,1.966c4.924,0,8.929,4.006,8.929,8.93
	c0,4.924-4.005,8.93-8.929,8.93c-4.924,0-8.93-4.006-8.93-8.93C37.328,5.972,41.334,1.966,46.258,1.966z M10.895,39.021
	c-4.924,0-8.929-4.006-8.929-8.93c0-4.924,4.005-8.93,8.929-8.93c4.924,0,8.93,4.006,8.93,8.93
	C19.826,35.015,15.82,39.021,10.895,39.021z M46.258,58.649c-4.924,0-8.93-4.006-8.93-8.93c0-4.924,4.006-8.93,8.93-8.93
	c4.924,0,8.929,4.006,8.929,8.93C55.188,54.643,51.183,58.649,46.258,58.649z"/>
</svg>
