<?xml version="1.0" encoding="utf-8"?>
<!-- Generator: Adobe Illustrator 18.0.0, SVG Export Plug-In . SVG Version: 6.00 Build 0)  -->
<!DOCTYPE svg PUBLIC "-//W3C//DTD SVG 1.1//EN" "http://www.w3.org/Graphics/SVG/1.1/DTD/svg11.dtd">
<svg version="1.1" id="Layer_1" xmlns="http://www.w3.org/2000/svg" xmlns:xlink="http://www.w3.org/1999/xlink" x="0px" y="0px"
	 viewBox="0 0 60.593 60.613" enable-background="new 0 0 60.593 60.613" xml:space="preserve">
<path fill="#FFFFFF" d="M58.687,1.904C57.46,0.676,55.827,0,54.09,0c-1.736,0-3.37,0.676-4.598,1.904L48.287,3.11l-1.13-1.13
	c-1.208-1.21-2.815-1.876-4.525-1.876h-0.001c-1.709,0-3.316,0.666-4.525,1.875L23.918,16.165l1.414,1.414L39.52,3.391
	c0.831-0.831,1.937-1.289,3.111-1.289c0,0,0,0,0.001,0c1.175,0,2.279,0.458,3.11,1.29l1.131,1.131L5.057,46.34
	c-0.101,0.1-0.178,0.22-0.229,0.353L0.064,59.259c-0.139,0.368-0.05,0.784,0.229,1.062c0.19,0.19,0.446,0.292,0.706,0.292
	c0.12,0,0.24-0.021,0.356-0.065l12.545-4.785c0.132-0.05,0.251-0.128,0.351-0.228l44.416-44.416c0.006-0.006,0.013-0.013,0.02-0.019
	c1.229-1.228,1.905-2.861,1.905-4.598S59.916,3.133,58.687,1.904z M7.178,47.047l28.185-28.185l6.367,6.367L13.545,53.414
	L7.178,47.047z M6.151,48.848l5.596,5.596l-9.022,3.441L6.151,48.848z M57.278,9.681c-0.007,0.006-0.013,0.012-0.019,0.018
	L43.143,23.816l-6.367-6.367l14.13-14.13C51.757,2.468,52.888,2,54.09,2c1.203,0,2.333,0.468,3.184,1.318
	c0.852,0.851,1.319,1.981,1.319,3.184C58.593,7.703,58.126,8.831,57.278,9.681z"/>
</svg>
