<?xml version="1.0" encoding="utf-8"?>
<!-- Generator: Adobe Illustrator 18.0.0, SVG Export Plug-In . SVG Version: 6.00 Build 0)  -->
<!DOCTYPE svg PUBLIC "-//W3C//DTD SVG 1.1//EN" "http://www.w3.org/Graphics/SVG/1.1/DTD/svg11.dtd">
<svg version="1.1" id="Layer_1" xmlns="http://www.w3.org/2000/svg" xmlns:xlink="http://www.w3.org/1999/xlink" x="0px" y="0px"
	 viewBox="0 0 792 612" enable-background="new 0 0 792 612" xml:space="preserve">
<path fill="#FFFFFF" d="M264,409.9c-11.4-18.5-31.3-23.5-41.3-23.5c-32.2,0-49.6,25.6-49.6,49.6c0,12.2,20.8,134.2,29.1,150.8
	c10.6,21.3,35.2,22.9,42.5,22.9c23.9,0,49.6-19.6,49.7-51c-0.3-4.3-15.7-93.9-25.1-138.5C269.3,417.8,267,413.2,264,409.9z
	 M244.7,585.9c-9.2,0-21.3-8.1-24-16.5c-9-41.9-23.7-127.1-23.7-133.3c0-12.8,8.8-25.7,25.7-25.7h0c7.5,0,19.9,6.4,22.4,16.4
	c8.9,39.8,25.3,127.3,25.3,131.7C270.4,575.5,255.5,585.9,244.7,585.9z"/>
<path fill="#FFFFFF" d="M395.5-0.5C350-0.5,314.3,4,266.7,27C150.1,83.8,97.9,199.7,97.9,289.3c0,11.8,20,113.4,32,174.7l0.9,4.4
	c1.8,9.1,5.3,27.8,8.4,44.2l3.9,22.2l50.7-8.8l-4.5-25.6l-26.5,4.6c-6.3-33-13.8-72.6-18.3-95.9c-18.1-93.2-22.6-117-22.6-119.8
	c0-25.4,6.3-60.9,14.5-82.3C183.6,71.6,301.3,23.4,395.6,23.4c169.1,0,273.7,138,273.7,265.9c0,2.7-10.7,61.9-39.5,210l-22.1-3.8
	l0.5-2.9c3.6-20,9.7-53.3,9.7-56.5c0-27.4-22.3-49.6-49.6-49.6c-45.1,0-50.6,40-56.3,82.4c-2,14.9-3.9,28.9-7.6,39.1
	c-3.4,18.4-7.7,48.1-7.7,50.5c0,25.2,18.6,51.3,49.7,51.3c14,0,33.2-8.7,41.1-23.3c9.6-16.7,12.4-39.3,14.8-57.5
	c0.3-2.7,0.7-5.3,1-7.9l21.6,3.8c0,0,0,0.1,0,0.1l24.4,4.7c21.9-115.1,43.7-236.6,44-240.3C693.2,129.5,559.7-0.5,395.5-0.5z
	 M568.6,570.1c-2.6,7.8-15.1,15.8-22.2,15.8c-16.7,0-25.7-14.1-25.7-27.3c0-1.8,0.6-4.9,2.3-13.6c2-9.8,4.6-23.2,5.7-33.2
	c1.3-6.8,2.7-14.7,4.1-23.1l0.9-4.7c1.5-4.1,2.3-12,3-19.7c2.1-21.5,5.3-53.9,31.7-53.9c15.4,0,25.7,13.3,25.7,25.7
	C594,442.3,577.4,529,568.6,570.1z"/>
</svg>
